<?xml version="1.0" standalone="no"?>
<!DOCTYPE svg PUBLIC "-//W3C//DTD SVG 20010904//EN"
 "http://www.w3.org/TR/2001/REC-SVG-20010904/DTD/svg10.dtd">
<svg version="1.0" xmlns="http://www.w3.org/2000/svg"
 width="56.000000pt" height="86.000000pt" viewBox="0 0 56.000000 86.000000"
 preserveAspectRatio="xMidYMid meet">

<g transform="translate(0.000000,86.000000) scale(0.100000,-0.100000)"
fill="#000000" stroke="none">
<path d="M200 732 c-52 -20 -101 -41 -108 -46 -11 -6 -13 -37 -9 -140 6 -187
23 -218 172 -329 l59 -45 61 46 c94 71 116 94 141 147 21 45 24 64 24 187 l0
136 -72 28 c-40 14 -88 33 -107 40 -46 19 -53 18 -161 -24z m316 -62 c2 0 4
-21 4 -47 l-1 -48 -13 30 c-7 17 -22 38 -32 47 -74 66 -263 66 -315 0 -16 -20
-19 -41 -19 -116 1 -134 30 -186 138 -240 29 -15 35 -15 61 -2 16 9 31 23 35
31 19 50 -3 85 -79 123 -59 29 -89 66 -89 107 0 68 80 115 164 96 50 -11 48
-9 50 -46 3 -48 1 -50 -23 -14 -19 29 -29 34 -69 37 -32 2 -50 -2 -62 -13 -18
-18 -22 -60 -6 -70 6 -3 10 4 10 17 0 13 9 29 21 36 24 15 59 7 59 -14 0 -8 4
-14 10 -14 5 0 2 -13 -8 -29 -9 -16 -22 -27 -29 -24 -31 12 -9 -8 41 -36 65
-36 86 -63 86 -112 0 -45 -31 -91 -91 -135 l-47 -34 -68 53 c-38 29 -82 72
-99 95 -30 44 -30 44 -30 184 l0 140 100 37 99 38 99 -39 c54 -21 100 -38 103
-38z"/>
</g>
</svg>
