<?xml version="1.0" standalone="no"?>
<!DOCTYPE svg PUBLIC "-//W3C//DTD SVG 20010904//EN"
 "http://www.w3.org/TR/2001/REC-SVG-20010904/DTD/svg10.dtd">
<svg version="1.0" xmlns="http://www.w3.org/2000/svg"
 width="369.000000pt" height="501.000000pt" viewBox="0 0 369.000000 501.000000"
 preserveAspectRatio="xMidYMid meet">

<g transform="translate(0.000000,501.000000) scale(0.100000,-0.100000)"
fill="#000000" stroke="none">
<path d="M1635 4696 c-115 -45 -309 -120 -430 -165 -121 -46 -276 -105 -345
-131 -69 -26 -241 -92 -382 -145 l-258 -98 0 -871 c0 -938 2 -980 54 -1183 65
-259 180 -477 367 -698 147 -175 334 -336 694 -600 286 -210 415 -308 476
-363 l48 -43 103 84 c97 79 252 195 468 352 718 519 989 906 1066 1525 11 91
14 286 14 955 l0 840 -337 127 c-575 217 -930 352 -1123 427 -102 39 -190 71
-195 70 -6 -1 -104 -38 -220 -83z m510 -238 c143 -54 319 -121 390 -148 72
-27 283 -107 470 -177 l340 -128 3 -374 c1 -206 0 -372 -3 -369 -3 3 -24 65
-45 137 -105 346 -236 520 -485 644 -252 125 -543 207 -810 227 -266 20 -554
-22 -865 -126 -333 -112 -426 -193 -492 -429 -21 -77 -22 -98 -26 -634 -3
-470 -1 -571 13 -664 69 -469 376 -829 945 -1106 74 -36 168 -79 208 -95 l73
-30 77 38 c191 94 337 221 393 341 78 166 35 400 -99 538 -57 58 -180 136
-376 237 -275 141 -530 319 -635 443 -52 61 -94 146 -117 237 -12 49 -15 94
-12 190 5 110 9 133 35 197 49 115 81 163 172 253 208 207 518 280 922 220
193 -29 327 -74 407 -138 l24 -18 -4 -245 c-2 -195 -6 -248 -18 -266 -30 -46
-35 -38 -83 117 -49 157 -176 314 -320 394 -146 82 -335 83 -553 4 -119 -43
-198 -98 -251 -176 -104 -152 -93 -318 28 -445 38 -39 48 -44 74 -39 25 5 27
7 10 11 -17 5 -20 14 -20 66 0 87 14 152 47 221 34 74 64 114 84 114 8 0 13 4
10 9 -4 5 7 12 23 16 16 3 35 12 41 20 30 36 210 45 262 12 13 -8 40 -20 61
-27 24 -7 43 -22 52 -40 8 -15 20 -30 27 -33 26 -9 67 -110 74 -180 7 -77 -16
-187 -46 -217 -3 -3 -16 -22 -30 -42 -14 -21 -29 -38 -34 -38 -4 0 -22 -11
-40 -25 -61 -49 -109 -75 -140 -75 -17 0 -22 -5 -21 -22 2 -17 8 -22 24 -21
12 2 20 -2 18 -9 -1 -7 3 -12 8 -13 6 0 21 -8 35 -17 14 -8 99 -55 190 -103
453 -242 621 -402 686 -655 23 -89 15 -284 -16 -390 -29 -101 -88 -225 -146
-307 -73 -102 -216 -246 -323 -325 -238 -177 -282 -209 -376 -275 -55 -38
-106 -73 -113 -77 -8 -5 -38 11 -80 41 -37 27 -98 71 -137 98 -77 53 -142 101
-345 252 -500 373 -804 789 -900 1233 -37 172 -41 263 -38 1009 l3 724 180 69
c99 37 198 74 220 82 22 8 130 49 240 91 110 42 259 98 330 125 316 119 479
181 494 190 9 5 23 7 31 4 8 -3 132 -51 275 -106z m-635 -1308 c0 -5 -5 -10
-11 -10 -5 0 -7 5 -4 10 3 6 8 10 11 10 2 0 4 -4 4 -10z m-34 -35 c0 -14 -1
-25 -2 -25 0 0 -9 10 -20 22 -17 19 -17 21 -1 15 9 -4 17 -2 17 3 0 6 2 10 4
10 2 0 3 -11 2 -25z m30 -14 c-1 -31 -16 -33 -16 -2 0 15 8 31 15 31 2 0 2
-13 1 -29z m460 -263 c3 -3 1 -9 -5 -13 -6 -3 -11 -2 -11 4 0 7 -8 7 -26 1
-33 -13 -34 -13 -28 3 5 13 58 16 70 5z"/>
<path d="M1846 2838 c3 -5 10 -6 15 -3 13 9 11 12 -6 12 -8 0 -12 -4 -9 -9z"/>
</g>
</svg>
